<?xml version="1.0" standalone="yes"?>
<svg xmlns="http://www.w3.org/2000/svg" width="1000" height="1000">
<path style="fill:#ffffff; stroke:none;" d="M0 0L0 1000L1000 1000L1000 0L0 0z"/>
<path style="fill:#fdfd56; stroke:none;" d="M434 182L435 182C435 196.337 436.798 210.4 441.699 224C443.114 227.926 446.994 239.397 452.57 233.677C457.049 229.083 453.738 221.327 452.665 216C450.166 203.591 448 189.669 447 177C452.228 180.212 462.848 191.416 468.907 190.887C475.018 190.352 479.378 177.88 476.971 173C471.541 161.988 459.622 157.062 449 152.8C445.897 151.555 440.822 148.447 437.39 149.697C431.698 151.769 427.79 164.889 425.572 170C423.314 175.202 414.671 184.024 417.133 189.985C423.13 204.508 431.405 188.326 434 182M572 185C572 199.65 569.653 214.561 573.039 229C574.53 235.359 576.471 243.692 584.867 239.486C590.582 236.623 588.392 229.018 587.925 224C586.95 213.512 586.579 202.457 588.326 192C589.371 185.741 592.705 180.45 593 174C598.416 176.267 607.256 186.581 612.166 186.654C618.36 186.746 623.643 175.278 620.485 170.428C616.238 163.904 597.045 151.804 589 153.269C582.627 154.429 575.661 160.585 570 163.694C565.554 166.136 557.843 168.775 555.184 173.329C552.836 177.349 557.784 187.822 562.263 188.928C565.632 189.76 569.394 186.702 572 185M749 220C735.12 233.889 722.302 249.592 710.181 265C704.784 271.861 697.894 281.098 709.325 287.169C714.852 290.104 721.695 277.637 725.09 274.615C735.964 264.935 744.346 254.604 754.093 244C759.406 238.22 766.644 233.197 770 226C772.051 232.937 767.841 241.52 770.603 247.851C772.064 251.2 775.743 250.911 777.297 247.851C782.008 238.575 782.628 221.222 781.911 211C781.641 207.161 781.046 202.126 777.772 199.603C769.131 192.946 747.134 202.785 737 202.985C733.36 203.056 726.593 200.771 723.742 203.607C717.796 209.52 720.638 227.954 731 226.616C737.33 225.798 742.51 220.973 749 220M292 212C287.726 223.276 290.404 236.48 290.08 248.17C289.943 253.126 288.862 260.432 291.938 264.721C294.569 268.389 299.963 268.567 301.427 263.941C303.449 257.554 303 249.633 303 243C313.128 254.593 321.601 267.794 332.025 279C334.45 281.607 338.761 288.744 342.999 287.654C350.56 285.71 348.948 276.837 346.069 272C338.232 258.83 325.537 248.015 316 236C324.163 236.068 337.045 239.989 344.701 236.397C350.332 233.754 349.977 220.285 344.581 217.603C340.615 215.631 334.341 216.313 330 215.827C317.587 214.438 304.211 214.267 292 212z"/>
<path style="fill:#ffffff; stroke:none;" d="M758 214L759 215L758 214z"/>
<path style="fill:#fdfd56; stroke:none;" d="M495 857C487.099 866.827 489.806 893.184 492 905L480 901C476.049 915.376 486.882 923.105 498 928.756C501.313 930.44 505.105 933.512 509 933.166C517.479 932.413 530.317 921.877 535.397 915.486C538.689 911.345 539 897.299 531.956 896.643C523.832 895.886 511.918 902.005 506 907C506 895.185 515.063 859.916 498 858C512.667 854.294 529.45 863.147 545 859.996C558.877 857.185 572.161 851.514 586 848.517C601.672 845.123 618.084 843.637 633 837.124C660.371 825.174 690.872 806.817 712.961 786.711C718.358 781.797 721.67 775.079 727.04 770.188C731.155 766.441 736.728 765.339 740.829 761.66C750.858 752.664 760.901 738.412 768.049 727C773.63 718.09 774.735 707.373 779.258 698C786.266 683.478 790.749 668.93 796.461 654C801.255 641.468 807.476 629.376 809.714 616C812.864 597.182 811 577.043 811 558C811 541.825 811.922 523.853 808.489 508C806.248 497.653 802.116 486.248 796.961 477C793.373 470.563 788.159 465.104 785.889 458C781.359 443.822 780.379 427.602 774.352 414C749.85 358.703 708.596 302.316 656 271.093C649.633 267.314 642.828 267.106 636 264.858C624.62 261.112 613.805 257.078 602 254.127C589.102 250.902 577.019 243.963 564 241.616C553.108 239.652 541.047 241 530 241C513.784 241 497.175 239.956 481 241.089C445.308 243.591 410.214 265.527 381 283.677C360.282 296.549 340.839 310.389 321 324.573C310.117 332.354 298.058 339.565 289.464 350C244.151 405.016 232.973 484.211 229.961 553C229.631 560.523 225.881 566.657 225.17 574C224.564 580.253 226.682 585.857 226.961 592C227.572 605.477 226.684 618.69 229.665 632C232.459 644.476 239.921 655.052 244.035 667C246.307 673.6 244.273 680.415 247.324 687C250.938 694.799 257.53 700.013 261.915 707.089C266.635 714.708 268.777 723.736 274.387 731C280.91 739.447 289.477 744.653 296.7 752.174C322.66 779.205 349.158 796.545 382 814.309C394.206 820.911 405.971 828.657 419 833.575C435.479 839.795 453.311 840.674 469.996 845.72C474.592 847.11 476.294 851.242 480.184 853.558C484.574 856.171 490.161 855.845 495 857z"/>
<path style="fill:#ffffff; stroke:none;" d="M744 246L736 256L744 246z"/>
<path style="fill:#fdfd56; stroke:none;" d="M194 301C188.468 314.021 182.519 327.534 178 341C176.691 344.901 172.541 350.711 173.376 354.852C174.239 359.136 182.686 358.622 185.852 357.682C192.132 355.818 189.478 339.895 198.104 338.77C202.331 338.219 207.779 345.521 211 347.791C220.803 354.7 234.562 366.989 246 370.282C255.417 372.994 262.648 360.189 256.721 353.039C244.702 338.539 227.687 337.33 214 326C220.081 324.278 230.231 308.281 222.775 303.119C216.588 298.836 201.449 302.383 194 301z"/>
<path style="fill:#ffffff; stroke:none;" d="M194.333 329.667L194.667 330.333L194.333 329.667M193 332L194 333L193 332z"/>
<path style="fill:#fdfd56; stroke:none;" d="M842 368L842 369C824.263 369.002 807.337 374.9 793 385.374C781.727 393.61 775.473 400.451 789 411C802.788 392.427 822.199 392.17 843 387.486C855.451 384.682 867.376 379.606 880 377C874.411 388.136 870.388 412.987 887 413C889.508 399.687 891.927 386.346 894.25 373C895.129 367.951 897.627 360.931 894.972 356.058C892.139 350.857 884.973 351.186 880 349.652C866.788 345.577 850.881 340.355 837 340.015C832.77 339.911 825.815 339.13 822.603 342.564C820.574 344.734 821.001 348.271 821 351C820.993 365.805 829.776 365.729 842 368z"/>
<path style="fill:#ffffff; stroke:none;" d="M600.043 377.742C594.081 380.16 592.425 390.383 591.043 396C587.398 410.818 590 428.789 590 444C590 450.086 588.573 458.385 591.318 463.999C594.994 471.517 607.661 483.944 616.96 480.257C624.915 477.102 627.667 464.43 628.919 457C631.331 442.689 630 427.486 630 413C630 406.521 631.379 398.168 629.182 392C625.568 381.854 610.788 373.386 600.043 377.742M367.09 384.742C355.683 389.123 351.281 401.343 348.294 412C343.573 428.844 343.232 453.597 345.285 471C345.875 475.994 344.686 483.666 347.603 487.907C354.586 498.057 374.909 496.632 384.996 492.74C393.312 489.532 395.159 478.749 396.611 471C400.396 450.803 397.21 424.623 388.691 406C384.775 397.438 381.26 379.3 367.09 384.742z"/>
<path style="fill:#fdfd56; stroke:none;" d="M164 399C156.798 414.667 129.722 417.41 123.901 434.001C120.444 443.853 129.527 461.701 132.562 471C133.613 474.221 132.4 478.577 135.434 480.86C149.237 491.248 146.41 461.921 145 456C161.035 456.699 175.6 467.263 191 471.49C196.002 472.863 202.45 476.951 207.856 475.227C212.964 473.597 214.487 458.39 210.566 455.329C199.898 447.001 185.424 444.697 173 440.39C167.007 438.313 162.087 434.076 156 432C160.772 427.436 169.676 424.06 173.218 418.787C177.613 412.244 169.234 402.098 164 399z"/>
<path style="fill:#8b9092; stroke:none;" d="M609 406L610 407L609 406z"/>
<path style="fill:#5d6263; stroke:none;" d="M610.667 406.333L611.333 406.667L610.667 406.333z"/>
<path style="fill:#8b9092; stroke:none;" d="M612 406L613 407L612 406M607 407L605 410L607 407z"/>
<path style="fill:#060a0b; stroke:none;" d="M620 437L619 437C611.517 450.147 611.517 417.853 619 431C623.9 423.826 617.168 398.622 606.419 409.318C598.868 416.831 595.845 447.433 602.653 455.786C615.154 471.125 619.994 445.375 620 437z"/>
<path style="fill:#8b9092; stroke:none;" d="M616 408L617 409L616 408z"/>
<path style="fill:#5d6263; stroke:none;" d="M614 409L615 410L614 409z"/>
<path style="fill:#8b9092; stroke:none;" d="M617 409L618 410L617 409z"/>
<path style="fill:#5d6263; stroke:none;" d="M612 410L613 411L612 410z"/>
<path style="fill:#ffffff; stroke:none;" d="M616 410C603.26 414.128 619.358 429.643 617.395 415.025C617.165 413.313 616.515 411.638 616 410z"/>
<path style="fill:#5d6263; stroke:none;" d="M604 411L605 412L604 411z"/>
<path style="fill:#8b9092; stroke:none;" d="M616 411L617 412L616 411z"/>
<path style="fill:#5d6263; stroke:none;" d="M618 411L619 412L618 411M611 412L612 413L611 412z"/>
<path style="fill:#8b9092; stroke:none;" d="M603 413L604 414L603 413M611 413L612 414L611 413M617.333 413.667L617.667 414.333L617.333 413.667z"/>
<path style="fill:#5d6263; stroke:none;" d="M619 413L620 414L619 413M603 414L604 415L603 414z"/>
<path style="fill:#8b9092; stroke:none;" d="M620.333 416.667L620.667 417.333L620.333 416.667M602 417L603 418L602 417M617.333 418.667L617.667 419.333L617.333 418.667z"/>
<path style="fill:#5d6263; stroke:none;" d="M620 418L620 422L621 422L620 418z"/>
<path style="fill:#8b9092; stroke:none;" d="M364 419L365 420L364 419z"/>
<path style="fill:#5d6263; stroke:none;" d="M365 419L365 420L368 420L365 419z"/>
<path style="fill:#8b9092; stroke:none;" d="M368 419L369 420L368 419M362 420L363 421L362 420z"/>
<path style="fill:#060a0b; stroke:none;" d="M383 445L382 445C380.689 451.266 375.378 450.375 375.378 444C375.378 438.406 379.918 436.396 382 442C387.981 427.748 365.278 410.642 359.148 426.005C355.506 435.133 354.919 457.661 360.703 465.96C365.429 472.742 376.054 475.794 380.427 466.982C383.459 460.872 382.999 451.687 383 445z"/>
<path style="fill:#8b9092; stroke:none;" d="M370 420L371 421L370 420M601 420L602 421L601 420z"/>
<path style="fill:#5d6263; stroke:none;" d="M611 420L612 421L611 420M617 420L618 421L617 420M361 421L362 422L361 421z"/>
<path style="fill:#8b9092; stroke:none;" d="M372 421L373 422L372 421z"/>
<path style="fill:#5d6263; stroke:none;" d="M601 421L602 422L601 421z"/>
<path style="fill:#8b9092; stroke:none;" d="M360 422L361 423L360 422z"/>
<path style="fill:#5d6263; stroke:none;" d="M373 422L374 423L373 422z"/>
<path style="fill:#8b9092; stroke:none;" d="M374.667 422.333L375.333 422.667L374.667 422.333z"/>
<path style="fill:#5d6263; stroke:none;" d="M612 422L613 423L612 422M616 422L617 423L616 422M377 423L378 424L377 423M613 423L614 424L613 423z"/>
<path style="fill:#8b9092; stroke:none;" d="M614 423L615 424L614 423z"/>
<path style="fill:#5d6263; stroke:none;" d="M615 423L616 424L615 423M359 424L360 425L359 424z"/>
<path style="fill:#8b9092; stroke:none;" d="M379 424L380 425L379 424z"/>
<path style="fill:#5d6263; stroke:none;" d="M369 425L370 426L369 425z"/>
<path style="fill:#ffffff; stroke:none;" d="M370 425C367.755 430.322 367.788 434.133 371 439C375.101 434.984 375.343 427.946 370 425z"/>
<path style="fill:#8b9092; stroke:none;" d="M372 425L373 426L372 425M358 426L359 427L358 426M373 426L374 427L373 426M600 426L601 427L600 426z"/>
<path style="fill:#5d6263; stroke:none;" d="M358 427L359 428L358 427M368 427L369 428L368 427z"/>
<path style="fill:#8b9092; stroke:none;" d="M381 427L382 428L381 427z"/>
<path style="fill:#5d6263; stroke:none;" d="M600.333 427.667L600.667 428.333L600.333 427.667M614 427L613 429L614 427z"/>
<path style="fill:#8b9092; stroke:none;" d="M615 427L615 428L619 430L615 427z"/>
<path style="fill:#5d6263; stroke:none;" d="M617 427L618 428L617 427z"/>
<path style="fill:#8b9092; stroke:none;" d="M368 428L369 429L368 428z"/>
<path style="fill:#5d6263; stroke:none;" d="M374 428L375 429L374 428z"/>
<path style="fill:#ffffff; stroke:none;" d="M494 428.569C482.433 430.679 478.918 444.985 480.185 455C480.928 460.866 485.273 467.602 492 466.424C497.461 465.467 506.923 461.467 508.852 455.995C512.259 446.329 507.69 426.072 494 428.569M614 428L615 441L617 441C619.422 435.967 620.325 429.92 614 428z"/>
<path style="fill:#5d6263; stroke:none;" d="M618 428L619 429L618 428z"/>
<path style="fill:#8b9092; stroke:none;" d="M374 429L374 435L375 435L374 429M613 429L614 430L613 429z"/>
<path style="fill:#5d6263; stroke:none;" d="M620 429L620 438L621 438L620 429z"/>
<path style="fill:#8b9092; stroke:none;" d="M382 430L383 431L382 430M357 431L357 434L358 434L357 431z"/>
<path style="fill:#5d6263; stroke:none;" d="M382 431L383 432L382 431M612.333 431.667L612.667 432.333L612.333 431.667z"/>
<path style="fill:#ffffff; stroke:none;" d="M144 432L144 434L146 434L146 432L144 432z"/>
<path style="fill:#8b9092; stroke:none;" d="M612.333 433.667L612.667 434.333L612.333 433.667z"/>
<path style="fill:#5d6263; stroke:none;" d="M357 434L357 446L358 446L357 434z"/>
<path style="fill:#8b9092; stroke:none;" d="M368 435L369 436L368 435z"/>
<path style="fill:#5d6263; stroke:none;" d="M612.333 435.667L612.667 436.333L612.333 435.667M368 436L369 437L368 436z"/>
<path style="fill:#8b9092; stroke:none;" d="M369 437L370 438L369 437z"/>
<path style="fill:#5d6263; stroke:none;" d="M373 437L374 438L373 437M377 437L376 439L377 437z"/>
<path style="fill:#ffffff; stroke:none;" d="M378.184 438.461C374.595 439.776 375.436 451.175 379.545 449.503C383.136 448.042 382.374 436.927 378.184 438.461z"/>
<path style="fill:#8b9092; stroke:none;" d="M379 437L380 438L379 437z"/>
<path style="fill:#5d6263; stroke:none;" d="M380 437L381 438L380 437z"/>
<path style="fill:#8b9092; stroke:none;" d="M370 438L371 439L370 438z"/>
<path style="fill:#5d6263; stroke:none;" d="M372 438L373 439L372 438z"/>
<path style="fill:#8b9092; stroke:none;" d="M613 438L614 439L613 438M618 438L619 439L618 438M620 438L620 443L621 443L620 438M381.333 439.667L381.667 440.333L381.333 439.667z"/>
<path style="fill:#5d6263; stroke:none;" d="M613 439L614 440L613 439M618 439L619 440L618 439z"/>
<path style="fill:#8b9092; stroke:none;" d="M614 440L615 441L614 440z"/>
<path style="fill:#5d6263; stroke:none;" d="M617 440L618 441L617 440M375 441L376 442L375 441z"/>
<path style="fill:#8b9092; stroke:none;" d="M375 442L375 447L376 447L375 442z"/>
<path style="fill:#5d6263; stroke:none;" d="M382 442L382 445L383 445L382 442M619.333 446.667L619.667 447.333L619.333 446.667z"/>
<path style="fill:#ffffff; stroke:none;" d="M137.333 447.667L137.667 448.333L137.333 447.667z"/>
<path style="fill:#8b9092; stroke:none;" d="M381.333 447.667L381.667 448.333L381.333 447.667M619 448L620 449L619 448z"/>
<path style="fill:#5d6263; stroke:none;" d="M376 449L377 450L376 449M377 450L378 451L377 450z"/>
<path style="fill:#8b9092; stroke:none;" d="M379 450L380 451L379 450z"/>
<path style="fill:#5d6263; stroke:none;" d="M380 450L381 451L380 450M618 450L619 451L618 450z"/>
<path style="fill:#8b9092; stroke:none;" d="M600 452L601 453L600 452z"/>
<path style="fill:#5d6263; stroke:none;" d="M617 452L618 453L617 452z"/>
<path style="fill:#8b9092; stroke:none;" d="M617 453L618 454L617 453z"/>
<path style="fill:#5d6263; stroke:none;" d="M601 454L602 455L601 454M357 455L357 458L358 458L357 455M382 455L382 458L383 458L382 455z"/>
<path style="fill:#8b9092; stroke:none;" d="M602 456L603 457L602 456M603 457L604 458L603 457z"/>
<path style="fill:#5d6263; stroke:none;" d="M616 457L617 458L616 457z"/>
<path style="fill:#8b9092; stroke:none;" d="M357 458L358 459L357 458M382 458L382 461L383 461L382 458z"/>
<path style="fill:#5d6263; stroke:none;" d="M605 458L606 459L605 458z"/>
<path style="fill:#8b9092; stroke:none;" d="M616 458L617 459L616 458z"/>
<path style="fill:#5d6263; stroke:none;" d="M607 459L608 460L607 459M615 459L616 460L615 459z"/>
<path style="fill:#8b9092; stroke:none;" d="M610.667 460.333L611.333 460.667L610.667 460.333z"/>
<path style="fill:#5d6263; stroke:none;" d="M612.667 460.333L613.333 460.667L612.667 460.333z"/>
<path style="fill:#8b9092; stroke:none;" d="M614 460L615 461L614 460z"/>
<path style="fill:#5d6263; stroke:none;" d="M358 461L359 462L358 461z"/>
<path style="fill:#8b9092; stroke:none;" d="M358 462L359 463L358 462M359 464L360 465L359 464M381.333 464.667L381.667 465.333L381.333 464.667M360 466L361 467L360 466z"/>
<path style="fill:#5d6263; stroke:none;" d="M361 467L362 468L361 467z"/>
<path style="fill:#8b9092; stroke:none;" d="M380 467L381 468L380 467z"/>
<path style="fill:#5d6263; stroke:none;" d="M362 468L363 469L362 468z"/>
<path style="fill:#8b9092; stroke:none;" d="M363 469L364 470L363 469M379 469L380 470L379 469z"/>
<path style="fill:#5d6263; stroke:none;" d="M365 470L366 471L365 470z"/>
<path style="fill:#8b9092; stroke:none;" d="M378 470L379 471L378 470M377 471L378 472L377 471M369 472L370 473L369 472z"/>
<path style="fill:#5d6263; stroke:none;" d="M374 472L375 473L374 472z"/>
<path style="fill:#8b9092; stroke:none;" d="M375 472L376 473L375 472z"/>
<path style="fill:#ffffff; stroke:none;" d="M141 474L142 475L141 474z"/>
<path style="fill:#fdfd56; stroke:none;" d="M387 479L388 480L387 479M386 481L385 483L386 481z"/>
<path style="fill:#ffffff; stroke:none;" d="M607 523C607.014 527.937 607.214 537.484 610.858 541.258C613.414 543.904 618.668 542.918 622 543.439C630.251 544.728 647.825 551.446 655.486 545.972C661.654 541.565 655.367 527.359 652 523C659.789 521.762 663.778 512.196 665.552 504.985C666.415 501.483 665.201 496.052 660.945 495.643C651.36 494.721 640.763 499.921 631 499.921C618.742 499.921 599.869 493.355 588.228 498.603C583.66 500.663 584.727 507.457 587.414 510.545C593.611 517.665 596.779 522.554 607 523z"/>
<path style="fill:#fdfd56; stroke:none;" d="M867 498C862.212 507.95 865.712 518.532 873 526L839 536.427L823 539L822 539C819.685 543.339 818.483 554.81 824.228 557.397C831.043 560.465 840.441 555.055 847 553.503C862.574 549.819 878.525 553.907 894 549C894 560.396 892.708 572.052 906 576C910.468 564.073 917.046 536.478 908.411 525.21C899.327 513.354 878.981 506.856 867 498z"/>
<path style="fill:#ffffff; stroke:none;" d="M340 527C334.433 527 326.894 525.85 322.279 529.703C318.932 532.497 317.769 540.116 322.419 542.397C328.91 545.581 343.557 541 351 541L351 542C344.575 542.724 339.16 551.484 346.279 555.972C351.877 559.502 369.66 557.904 376 556.471C381.019 555.337 390.092 552.694 392.681 547.892C396.942 539.991 389.11 527.197 381 527C385.776 523.749 392.287 524.203 396.682 521.012C401.077 517.82 399.507 509.04 393.981 508.269C387.613 507.38 380.025 511.879 374 513.572C364.509 516.238 350.876 514.606 342.279 518.603C338.873 520.187 339.26 524.033 340 527z"/>
<path style="fill:#fdfd56; stroke:none;" d="M149 583C134.802 603.174 108.32 625.133 126.702 651.985C129.745 656.431 134.756 659.102 138.961 662.295C143.221 665.53 146.506 672.25 152.003 673.369C160.239 675.045 165.742 659.078 164 653C154.53 653.274 140.428 644.525 135 637C144.122 637 152.062 634.13 161 633.174C170.604 632.145 180.373 632.962 190 631.711C195.511 630.995 204.803 630.301 207.821 624.892C211.834 617.7 205.262 609.411 197.999 609.04C179.889 608.117 160.367 607.447 143 613C146.447 609.065 163.064 599.272 161.339 594.127C159.952 589.992 153.426 587.171 151 583L149 583M874 665L876 679C855.595 674.788 835.792 672.359 815 676.514C811.629 677.188 806.105 677.459 803.434 679.742C799.062 683.48 802.469 695.013 806.419 698.142C810.836 701.641 819.726 700 825 700C841.117 700 856.954 698.734 873 700L878 739C883.979 737.054 885.681 729.738 889.238 725C894.601 717.859 901.411 710.418 901.891 701C902.448 690.081 883.527 669.246 874 665M182 777C183.331 769.935 185.027 763.687 187.691 757C189.624 752.146 191.596 744.305 189.397 739.21C188.043 736.073 182.71 732.933 179.703 735.622C176.415 738.562 175.839 745.904 175.004 750C172.397 762.785 171.969 775.295 168.76 788C167.623 792.502 167.048 799.025 170.434 802.721C174.479 807.138 182.589 806.124 188 807.721C205.783 812.969 223.944 816.861 242 821L242 796L218 795.714L194 791C210.292 778.567 225.227 764.873 241 751.755C246.309 747.339 254.019 744.492 258.682 739.61C263.086 734.998 260.971 719.966 253.829 718.418C248.597 717.284 237.858 728.097 234 731.325C216.01 746.376 201.219 763.235 182 777M725 794C722.091 798.718 716.18 804.959 717.361 810.996C718.266 815.618 723.447 818.504 727 820.975C736.814 827.8 744.406 840.06 755 845L755 847C737.306 851.257 752.756 860.994 757 869C765.823 867.697 778.455 864.447 784.687 857.674C794.424 847.092 794.385 823.702 788 812L785 814C778.677 815.264 778.694 827.54 778 833L743 808.482L725 794z"/>
<path style="fill:#ffffff; stroke:none;" d="M723 809L724 810L723 809z"/>
<path style="fill:#fdfd56; stroke:none;" d="M314 878L313 878C313 868.234 313.031 858.649 311.242 849.005C310.359 844.248 306.25 840.738 301.318 844.028C296.313 847.366 298.975 863.598 299.001 869C299.046 878.296 301.65 902.787 313 904.617C321.397 905.97 329.603 900.008 338 900.26C342.683 900.4 355.247 907.907 358.397 905.289C360.539 903.508 360.024 899.451 359.996 897C359.831 882.619 345.792 884.226 335 882C345.258 868.534 356.557 855.857 365.128 841C367.343 837.161 373.152 830.747 372.434 826.129C371.88 822.57 362.447 812.951 358.614 815.157C356.089 816.611 353.224 827.038 350.699 830C338.612 844.182 320.677 860.357 314 878M642 842C630.843 840.107 631.591 851.715 634.464 859C637.471 866.62 643.382 872.101 647.522 879C652.537 887.359 655.444 895.424 662 903C657.964 903.321 652.574 903.651 649.514 906.653C645.498 910.592 644.164 922.495 649.279 926.012C658.931 932.65 681.028 931.37 689.61 923.431C693.71 919.638 695.986 912.793 698.796 908C701.733 902.992 707.094 893.974 705.423 888.019C703.957 882.796 698.16 881.824 694.329 885.318C691.178 888.192 687.955 901.368 682.322 899.654C676.935 898.015 675.759 888.259 673.622 884C668.161 873.115 657.741 864.908 651.792 854C650.26 851.19 645.921 837.886 642 842z"/>
<path style="fill:#ffffff; stroke:none;" d="M766 844L767 845L766 844z"/>
</svg>
